<svg width="90" height="90" viewBox="0 0 90 90" fill="none" xmlns="http://www.w3.org/2000/svg">
<ellipse cx="44.9597" cy="53.0515" rx="26.7781" ry="26.7458" transform="rotate(-70.9229 44.9597 53.0515)" fill="url(#paint0_radial_184_2046)"/>
<path d="M77.3385 33.3451C78.105 34.978 77.9611 37.014 76.919 39.3619C75.8776 41.7082 73.9636 44.3046 71.3048 46.9896C65.9904 52.3566 57.7797 57.9985 47.929 62.6229C38.0783 67.2473 28.4925 69.9599 20.9684 70.62C17.2042 70.9502 13.984 70.7641 11.5136 70.0664C9.04146 69.3682 7.38312 68.1783 6.61657 66.5454C5.85002 64.9126 5.99398 62.8766 7.03609 60.5286C8.07748 58.1823 9.99151 55.586 12.6502 52.9009C17.9647 47.5339 26.1753 41.8921 36.026 37.2677C45.8768 32.6433 55.4626 29.9306 62.9867 29.2706C66.7508 28.9404 69.9711 29.1265 72.4415 29.8242C74.9136 30.5224 76.5719 31.7123 77.3385 33.3451Z" stroke="url(#paint1_linear_184_2046)"/>
<path fill-rule="evenodd" clip-rule="evenodd" d="M46.9867 17.1012C51.331 17.1012 53.5918 18.6543 54.9661 19.7037C55.2725 19.9346 55.5194 20.2283 55.6884 20.5628C55.8573 20.8973 55.9438 21.2638 55.9413 21.6345V42.0765C55.9295 42.2304 55.8675 42.3771 55.764 42.4963C55.7074 42.553 55.6384 42.5974 55.5618 42.6264C55.4853 42.6554 55.403 42.6683 55.3207 42.6642C55.2449 42.6679 55.1693 42.6547 55.0999 42.6255C55.0306 42.5963 54.9695 42.5521 54.9217 42.4963C53.5475 41.4049 50.8434 39.9778 46.8537 39.9778C40.2042 39.9778 38.2537 45.8543 38.2537 45.8543V23.6074C38.2564 22.4657 38.6621 21.3576 39.4063 20.4592C40.6475 18.9061 42.9083 17.1012 46.9867 17.1012ZM28.1021 17.1012C32.1805 17.1012 34.4413 18.9061 35.7269 20.4592C36.471 21.3576 36.8767 22.4657 36.8795 23.6074V45.8543C36.8795 45.8543 34.9289 39.9778 28.2795 39.9778C24.2898 39.9778 21.5856 41.4049 20.2114 42.4963C20.0873 42.5695 19.953 42.626 19.8124 42.6642C19.7304 42.6661 19.6488 42.6522 19.5726 42.6233C19.4964 42.5944 19.4272 42.5512 19.3691 42.4963C19.3111 42.4413 19.2655 42.3758 19.235 42.3036C19.2045 42.2315 19.1898 42.1542 19.1918 42.0765L19.1918 21.6345C19.194 21.2645 19.2826 20.8996 19.4512 20.5657C19.6198 20.2319 19.8643 19.9376 20.1671 19.7037C21.497 18.6543 23.7578 17.1012 28.1021 17.1012Z" fill="url(#paint2_linear_184_2046)"/>
<circle cx="64.5" cy="53.5024" r="22.5" fill="url(#paint3_radial_184_2046)"/>
<defs>
<radialGradient id="paint0_radial_184_2046" cx="0" cy="0" r="1" gradientUnits="userSpaceOnUse" gradientTransform="translate(55.7638 60.0385) rotate(-142.391) scale(37.5309 37.5963)">
<stop stop-color="#FFE78B"/>
<stop offset="0.364583" stop-color="#B0A476"/>
<stop offset="1" stop-color="#544B34" stop-opacity="0.16"/>
</radialGradient>
<linearGradient id="paint1_linear_184_2046" x1="47.5278" y1="67.3071" x2="36.2787" y2="50.3569" gradientUnits="userSpaceOnUse">
<stop stop-color="white"/>
<stop offset="1" stop-color="white" stop-opacity="0"/>
<stop offset="1" stop-color="white" stop-opacity="0"/>
</linearGradient>
<linearGradient id="paint2_linear_184_2046" x1="45.8368" y1="21.1051" x2="28.0668" y2="50.4819" gradientUnits="userSpaceOnUse">
<stop stop-color="white"/>
<stop offset="1" stop-color="#FAE7A6" stop-opacity="0.5"/>
</linearGradient>
<radialGradient id="paint3_radial_184_2046" cx="0" cy="0" r="1" gradientUnits="userSpaceOnUse" gradientTransform="translate(64.5 53.5024) rotate(90) scale(22.5)">
<stop stop-color="#FFF1C0" stop-opacity="0.94"/>
<stop offset="0.598958" stop-color="#FFF1C0" stop-opacity="0.26"/>
<stop offset="1" stop-color="#FFF1C0" stop-opacity="0"/>
</radialGradient>
</defs>
</svg>
