<svg width="70" height="70" viewBox="0 0 70 70" fill="none" xmlns="http://www.w3.org/2000/svg">
<ellipse rx="17.6563" ry="17.635" transform="matrix(-0.999782 0.0208896 -0.020876 -0.999782 29.0209 27)" fill="url(#paint0_radial_184_2112)"/>
<circle opacity="0.6" cx="18" cy="17" r="14" fill="url(#paint1_radial_184_2112)"/>
<path d="M55.9742 55.1139L50.2404 48.1115C49.9816 47.7954 49.6079 47.5969 49.1991 47.5561L48.1579 47.4523C50.1456 45.3736 51.4759 42.6424 51.7835 39.5577C52.5151 32.2194 47.1609 25.6806 39.8214 24.9489C32.4819 24.2172 25.9421 29.5702 25.2105 36.9085C24.479 44.2467 29.8331 50.7855 37.1726 51.5173C40.2579 51.8248 43.1985 51.0602 45.6291 49.5223L45.5253 50.5633C45.4845 50.972 45.6054 51.3775 45.8642 51.6936L51.5979 58.696C52.1385 59.3562 53.1095 59.453 53.7634 58.9119L55.7513 57.2847C56.4116 56.7442 56.5084 55.7734 55.9742 55.1139ZM37.682 46.4079C33.1659 45.9577 29.8699 41.9397 30.3207 37.4179C30.7709 32.9026 34.7895 29.6073 39.312 30.0582C43.8281 30.5084 47.1241 34.5265 46.6733 39.0482C46.2231 43.5635 42.2045 46.8588 37.682 46.4079Z" fill="url(#paint2_linear_184_2112)"/>
<path d="M41.1243 20.3313C49.3538 20.4777 55.9066 27.2678 55.7603 35.4973" stroke="url(#paint3_linear_184_2112)" stroke-linecap="round"/>
<path d="M19.0003 22.896C27.385 12.46 42.6423 10.7971 53.0784 19.1817" stroke="url(#paint4_linear_184_2112)" stroke-linecap="round"/>
<defs>
<radialGradient id="paint0_radial_184_2112" cx="0" cy="0" r="1" gradientUnits="userSpaceOnUse" gradientTransform="translate(25.7441 22.105) rotate(-146.6) scale(21.1099 21.1467)">
<stop stop-color="#007383"/>
<stop offset="0.302083" stop-color="#00647A"/>
<stop offset="1" stop-color="#04435F" stop-opacity="0.47"/>
</radialGradient>
<radialGradient id="paint1_radial_184_2112" cx="0" cy="0" r="1" gradientUnits="userSpaceOnUse" gradientTransform="translate(18 17) rotate(90) scale(14)">
<stop stop-color="#6FF6FF" stop-opacity="0.8"/>
<stop offset="0.583333" stop-color="#6FF6FF" stop-opacity="0.32"/>
<stop offset="1" stop-color="#2AB1C4" stop-opacity="0"/>
</radialGradient>
<linearGradient id="paint2_linear_184_2112" x1="36.7" y1="24.6377" x2="49.3913" y2="62.9461" gradientUnits="userSpaceOnUse">
<stop stop-color="#BBF7FF" stop-opacity="0.82"/>
<stop offset="1" stop-color="white" stop-opacity="0.79"/>
</linearGradient>
<linearGradient id="paint3_linear_184_2112" x1="49.3038" y1="35.2767" x2="55.7603" y2="35.497" gradientUnits="userSpaceOnUse">
<stop stop-color="white" stop-opacity="0.49"/>
<stop offset="1" stop-color="white"/>
</linearGradient>
<linearGradient id="paint4_linear_184_2112" x1="46.3642" y1="27.264" x2="53.078" y2="19.1813" gradientUnits="userSpaceOnUse">
<stop stop-color="white"/>
<stop offset="0.84375" stop-color="white" stop-opacity="0.49"/>
</linearGradient>
</defs>
</svg>
