<svg width="70" height="70" viewBox="0 0 70 70" fill="none" xmlns="http://www.w3.org/2000/svg">
<ellipse rx="22.6886" ry="22.6613" transform="matrix(-0.715028 0.699096 -0.699086 -0.715037 35.0652 35.0652)" fill="url(#paint0_radial_184_2253)"/>
<path d="M51.1049 11.8055C51.1049 11.8055 41.5067 11.7831 34.0239 19.2659C33.6857 19.6079 33.3781 19.9788 33.1046 20.3744C31.778 20.2685 29.7448 20.307 28.7079 21.3461C26.2814 23.7726 25.4722 27.8176 25.4722 27.8176L31.1313 27.0094V28.5723L34.3382 31.7792H35.901L35.0918 37.4393C35.0918 37.4393 39.1368 36.6301 41.5633 34.2036C42.6013 33.1656 42.6398 31.1335 42.535 29.8069C42.9308 29.5337 43.3018 29.2261 43.6435 28.8876C51.1263 21.4049 51.1049 11.8055 51.1049 11.8055V11.8055ZM40.4366 20.3359C40.4302 20.0512 40.4807 19.7681 40.5852 19.5031C40.6897 19.2382 40.846 18.9968 41.0451 18.7932C41.2441 18.5895 41.4819 18.4277 41.7443 18.3172C42.0068 18.2067 42.2887 18.1497 42.5735 18.1496C42.8582 18.1496 43.1402 18.2064 43.4027 18.3168C43.6652 18.4271 43.903 18.5889 44.1022 18.7924C44.3013 18.996 44.4578 19.2373 44.5624 19.5021C44.6671 19.767 44.7177 20.0501 44.7114 20.3348C44.6991 20.8934 44.4685 21.425 44.0691 21.8157C43.6698 22.2065 43.1333 22.4253 42.5745 22.4255C42.0158 22.4256 41.4792 22.207 41.0796 21.8165C40.6801 21.4259 40.4492 20.8945 40.4366 20.3359Z" fill="url(#paint1_linear_184_2253)"/>
<path d="M31.9363 32.8598C30.9539 33.8422 29.7086 33.1976 29.7086 33.1976C29.7086 33.1976 29.1014 31.9148 30.0463 30.9698C30.1276 30.8886 30.227 30.8426 30.3221 30.7871L29.6647 30.1296C29.3216 30.2472 28.9977 30.4332 28.724 30.7069C27.7641 31.6668 27.8197 35.0864 27.8197 35.0864C27.8197 35.0864 31.2404 35.1409 32.1992 34.1821C32.4729 33.9084 32.6589 33.5845 32.7765 33.2414L32.1201 32.5851C32.0635 32.6791 32.0175 32.7785 31.9363 32.8598V32.8598Z" fill="url(#paint2_linear_184_2253)" fill-opacity="0.51"/>
<path d="M63.5859 30.9737C63.8228 32.2498 63.3562 33.6585 62.1721 35.1438C60.9891 36.6278 59.1288 38.1348 56.7067 39.5702C51.8661 42.4388 44.8783 44.9647 36.8924 46.4473C28.9065 47.9299 21.4778 48.0806 15.9302 47.1406C13.1543 46.6703 10.877 45.9314 9.24019 44.971C7.60184 44.0098 6.66075 42.8624 6.42383 41.5862C6.18691 40.3101 6.65346 38.9014 7.8376 37.4161C9.02064 35.9322 10.8809 34.4251 13.303 32.9897C18.1436 30.1211 25.1314 27.5952 33.1173 26.1126C41.1032 24.63 48.5319 24.4793 54.0795 25.4193C56.8554 25.8896 59.1327 26.6285 60.7695 27.5889C62.4079 28.5502 63.3489 29.6975 63.5859 30.9737Z" stroke="url(#paint3_linear_184_2253)"/>
<circle cx="17.5" cy="45.5" r="12.5" fill="url(#paint4_radial_184_2253)"/>
<defs>
<radialGradient id="paint0_radial_184_2253" cx="0" cy="0" r="1" gradientUnits="userSpaceOnUse" gradientTransform="translate(33.0815 28.4052) rotate(-146.6) scale(27.1266 27.1739)">
<stop stop-color="#0047A0"/>
<stop offset="0.395833" stop-color="#003C87"/>
<stop offset="1" stop-color="#091E38" stop-opacity="0.73"/>
</radialGradient>
<linearGradient id="paint1_linear_184_2253" x1="49.368" y1="12.7743" x2="38.3888" y2="44.0972" gradientUnits="userSpaceOnUse">
<stop stop-color="white" stop-opacity="0.84"/>
<stop offset="1" stop-color="#90BFFB" stop-opacity="0.32"/>
</linearGradient>
<linearGradient id="paint2_linear_184_2253" x1="30.2978" y1="30.1296" x2="29.9931" y2="38.2847" gradientUnits="userSpaceOnUse">
<stop stop-color="white"/>
<stop offset="1" stop-color="white" stop-opacity="0.33"/>
</linearGradient>
<linearGradient id="paint3_linear_184_2253" x1="35.7411" y1="49.8832" x2="35.3251" y2="34.5518" gradientUnits="userSpaceOnUse">
<stop stop-color="white"/>
<stop offset="1" stop-color="white" stop-opacity="0"/>
<stop offset="1" stop-color="white" stop-opacity="0"/>
</linearGradient>
<radialGradient id="paint4_radial_184_2253" cx="0" cy="0" r="1" gradientUnits="userSpaceOnUse" gradientTransform="translate(17.5 45.5) rotate(90) scale(12.5)">
<stop stop-color="#6FBAFF" stop-opacity="0.8"/>
<stop offset="0.583333" stop-color="#6FC2FF" stop-opacity="0.4"/>
<stop offset="1" stop-color="#6FBAFF" stop-opacity="0"/>
</radialGradient>
</defs>
</svg>
