<svg width="70" height="70" viewBox="0 0 70 70" fill="none" xmlns="http://www.w3.org/2000/svg">
<ellipse cx="36.8271" cy="36.8744" rx="20.6235" ry="20.5987" transform="rotate(-70.9229 36.8271 36.8744)" fill="url(#paint0_radial_184_1813)"/>
<path d="M62.0516 20.9826C62.629 22.2126 62.5276 23.7603 61.7243 25.5701C60.9218 27.3783 59.4429 29.3868 57.3804 31.4697C53.2583 35.6327 46.8839 40.014 39.2309 43.6067C31.5779 47.1995 24.1351 49.3047 18.299 49.8167C15.3789 50.0728 12.889 49.9275 10.9852 49.3898C9.07969 48.8517 7.82423 47.941 7.2468 46.711C6.66938 45.481 6.77081 43.9333 7.57407 42.1235C8.37661 40.3153 9.85547 38.3068 11.918 36.2239C16.0401 32.0609 22.4145 27.6796 30.0675 24.0869C37.7205 20.4941 45.1633 18.3889 50.9993 17.8769C53.9195 17.6208 56.4094 17.7661 58.3132 18.3038C60.2187 18.8419 61.4742 19.7526 62.0516 20.9826Z" stroke="url(#paint1_linear_184_1813)"/>
<circle cx="47.5" cy="37.5" r="22.5" fill="url(#paint2_radial_184_1813)"/>
<path d="M36.5165 11.8441L25.493 8.06847C25.36 8.02282 25.1816 8 25.0032 8C24.8247 8 24.6463 8.02282 24.5133 8.06847L13.4899 11.8441C13.2206 11.9354 13 12.2485 13 12.5354V28.2641C13 28.551 13.1849 28.9292 13.4088 29.1086L24.5912 37.8663C24.7047 37.9544 24.8507 38 24.9999 38C25.1492 38 25.2984 37.9544 25.4087 37.8663L36.5911 29.1086C36.8149 28.9325 36.9999 28.5543 36.9999 28.2641V12.5354C37.0063 12.2485 36.7858 11.9387 36.5165 11.8441ZM30.9237 17.4131L24.0267 26.9566C23.9782 27.0233 23.9147 27.0776 23.8415 27.115C23.7682 27.1524 23.6872 27.1719 23.605 27.1719C23.5228 27.1719 23.4417 27.1524 23.3685 27.115C23.2952 27.0776 23.2317 27.0233 23.1832 26.9566L19.0827 21.2833C18.9594 21.1105 19.0827 20.8693 19.2936 20.8693H21.0843C21.2498 20.8693 21.4087 20.9508 21.506 21.0844L23.605 23.9863L28.5003 17.211C28.5976 17.0773 28.7534 16.9958 28.922 16.9958H30.7128C30.9237 16.999 31.0469 17.2403 30.9237 17.4131Z" fill="url(#paint3_linear_184_1813)"/>
<defs>
<radialGradient id="paint0_radial_184_1813" cx="0" cy="0" r="1" gradientUnits="userSpaceOnUse" gradientTransform="translate(45.1481 42.2555) rotate(-142.391) scale(28.905 28.9553)">
<stop stop-color="#FFE78B"/>
<stop offset="0.364583" stop-color="#B0A476"/>
<stop offset="1" stop-color="#544B34" stop-opacity="0.16"/>
</radialGradient>
<linearGradient id="paint1_linear_184_1813" x1="38.9661" y1="47.3507" x2="30.2166" y2="34.1671" gradientUnits="userSpaceOnUse">
<stop stop-color="white"/>
<stop offset="1" stop-color="white" stop-opacity="0"/>
<stop offset="1" stop-color="white" stop-opacity="0"/>
</linearGradient>
<radialGradient id="paint2_radial_184_1813" cx="0" cy="0" r="1" gradientUnits="userSpaceOnUse" gradientTransform="translate(47.5 37.5) rotate(90) scale(22.5)">
<stop stop-color="#FFF1C0" stop-opacity="0.94"/>
<stop offset="0.588542" stop-color="#FFF1C0" stop-opacity="0.31"/>
<stop offset="1" stop-color="#FFF1C0" stop-opacity="0"/>
</radialGradient>
<linearGradient id="paint3_linear_184_1813" x1="30.401" y1="12.1775" x2="9.48026" y2="33.8254" gradientUnits="userSpaceOnUse">
<stop stop-color="white"/>
<stop offset="1" stop-color="#FAE7A6" stop-opacity="0.5"/>
</linearGradient>
</defs>
</svg>
