<svg width="53" height="50" viewBox="0 0 53 50" fill="none" xmlns="http://www.w3.org/2000/svg">
<ellipse rx="17.0728" ry="17.0522" transform="matrix(-0.715028 0.699096 -0.699086 -0.715037 25.3141 26.9857)" fill="url(#paint0_radial_184_1955)"/>
<path d="M48.2872 14.042C48.775 15.0811 48.6937 16.3973 48.0037 17.9521C47.3143 19.5052 46.0417 21.235 44.2617 23.0327C40.7047 26.6249 35.2007 30.4087 28.5893 33.5125C21.9779 36.6162 15.5507 38.4336 10.5147 38.8753C7.99464 39.0964 5.85086 38.9705 4.21559 38.5086C2.57863 38.0463 1.5141 37.268 1.02631 36.2289C0.538522 35.1898 0.619805 33.8736 1.30986 32.3188C1.9992 30.7657 3.27181 29.0359 5.0518 27.2383C8.60879 23.6461 14.1128 19.8622 20.7242 16.7585C27.3357 13.6547 33.7628 11.8374 38.7988 11.3956C41.3189 11.1745 43.4627 11.3005 45.0979 11.7623C46.7349 12.2247 47.7994 13.003 48.2872 14.042Z" stroke="url(#paint1_linear_184_1955)"/>
<circle opacity="0.6" cx="42.8572" cy="25" r="10" fill="url(#paint2_radial_184_1955)"/>
<path d="M24 24.459C24 25.5527 23.6716 26.4163 23.0149 27.0498C22.3582 27.6833 21.4856 28 20.397 28H8.60298C7.51444 28 6.64181 27.6833 5.98509 27.0498C5.32836 26.4163 5 25.5527 5 24.459C5 23.9759 5.01574 23.5042 5.04723 23.0439C5.07872 22.5837 5.14169 22.0869 5.23615 21.5537C5.33061 21.0205 5.44981 20.526 5.59375 20.0703C5.73769 19.6146 5.93111 19.1702 6.17401 18.7373C6.4169 18.3044 6.69579 17.9352 7.01065 17.6299C7.32552 17.3245 7.71011 17.0807 8.16442 16.8984C8.61873 16.7161 9.12027 16.625 9.66904 16.625C9.759 16.625 9.95241 16.723 10.2493 16.9189C10.5462 17.1149 10.8745 17.3337 11.2344 17.5752C11.5942 17.8167 12.0755 18.0355 12.6783 18.2314C13.281 18.4274 13.8883 18.5254 14.5 18.5254C15.1117 18.5254 15.719 18.4274 16.3217 18.2314C16.9245 18.0355 17.4058 17.8167 17.7656 17.5752C18.1255 17.3337 18.4538 17.1149 18.7507 16.9189C19.0476 16.723 19.241 16.625 19.331 16.625C19.8797 16.625 20.3813 16.7161 20.8356 16.8984C21.2899 17.0807 21.6745 17.3245 21.9893 17.6299C22.3042 17.9352 22.5831 18.3044 22.826 18.7373C23.0689 19.1702 23.2623 19.6146 23.4062 20.0703C23.5502 20.526 23.6694 21.0205 23.7638 21.5537C23.8583 22.0869 23.9213 22.5837 23.9528 23.0439C23.9843 23.5042 24 23.9759 24 24.459ZM19.6818 12.25C19.6818 13.6992 19.1758 14.9365 18.1637 15.9619C17.1516 16.9873 15.9304 17.5 14.5 17.5C13.0696 17.5 11.8484 16.9873 10.8363 15.9619C9.82422 14.9365 9.31818 13.6992 9.31818 12.25C9.31818 10.8008 9.82422 9.56348 10.8363 8.53809C11.8484 7.5127 13.0696 7 14.5 7C15.9304 7 17.1516 7.5127 18.1637 8.53809C19.1758 9.56348 19.6818 10.8008 19.6818 12.25Z" fill="url(#paint3_linear_184_1955)"/>
<path d="M26.5 10V13.5M26.5 13.5V17M26.5 13.5H23M26.5 13.5L30 13.5" stroke="url(#paint4_linear_184_1955)" stroke-width="0.7" stroke-linecap="round"/>
<defs>
<radialGradient id="paint0_radial_184_1955" cx="0" cy="0" r="1" gradientUnits="userSpaceOnUse" gradientTransform="translate(24.8933 21.3744) rotate(-146.6) scale(20.4123 20.4479)">
<stop stop-color="#007383"/>
<stop offset="0.302083" stop-color="#00647A"/>
<stop offset="1" stop-color="#04435F" stop-opacity="0.26"/>
</radialGradient>
<linearGradient id="paint1_linear_184_1955" x1="28.3891" y1="36.8107" x2="20.8244" y2="25.4123" gradientUnits="userSpaceOnUse">
<stop stop-color="white"/>
<stop offset="1" stop-color="white" stop-opacity="0"/>
<stop offset="1" stop-color="white" stop-opacity="0"/>
</linearGradient>
<radialGradient id="paint2_radial_184_1955" cx="0" cy="0" r="1" gradientUnits="userSpaceOnUse" gradientTransform="translate(42.8572 25) rotate(90) scale(10)">
<stop stop-color="#6FF6FF" stop-opacity="0.8"/>
<stop offset="0.583333" stop-color="#6FF6FF" stop-opacity="0.32"/>
<stop offset="1" stop-color="#2AB1C4" stop-opacity="0"/>
</radialGradient>
<linearGradient id="paint3_linear_184_1955" x1="22.7125" y1="7.79363" x2="13.0069" y2="32.8471" gradientUnits="userSpaceOnUse">
<stop stop-color="white" stop-opacity="0.84"/>
<stop offset="1" stop-color="#90E1FB" stop-opacity="0.32"/>
</linearGradient>
<linearGradient id="paint4_linear_184_1955" x1="29.5257" y1="10.2645" x2="18.8003" y2="21.2003" gradientUnits="userSpaceOnUse">
<stop stop-color="white" stop-opacity="0.84"/>
<stop offset="1" stop-color="#90E1FB" stop-opacity="0.32"/>
</linearGradient>
</defs>
</svg>
