<svg width="74" height="70" viewBox="0 0 74 70" fill="none" xmlns="http://www.w3.org/2000/svg">
<ellipse rx="23.9019" ry="23.8731" transform="matrix(-0.715028 0.699096 -0.699086 -0.715037 35.4396 37.7801)" fill="url(#paint0_radial_184_2067)"/>
<path d="M29.3425 22.2175C29.1938 22.0249 29.0013 21.8762 28.7738 21.78L23.3401 19.5749C22.9813 19.435 22.5525 19.435 22.2113 19.6362C21.8088 19.8374 21.555 20.2662 21.52 20.7124C21.345 20.9487 20.4525 21.4299 19 21.4299C17.5476 21.4299 16.655 20.9487 16.48 20.7124C16.4625 19.8374 15.4738 19.2162 14.6775 19.5662L9.22631 21.78C8.9988 21.8762 8.80627 22.0249 8.65754 22.2175L5.69127 26.2424C5.35877 26.6974 5.35006 27.3187 5.68256 27.7824L8.8938 32.2712C9.32254 32.8924 10.2763 32.9975 10.8275 32.4812L11.4838 43.2962C11.5188 43.9875 12.0963 44.5299 12.7876 44.5299H25.2125C25.9038 44.5299 26.4813 43.9874 26.5163 43.2962L27.1726 32.4812C27.7238 32.9975 28.6775 32.8924 29.1063 32.2712L32.3175 27.7824C32.65 27.3187 32.6413 26.6974 32.3088 26.2424L29.3425 22.2175Z" fill="url(#paint1_linear_184_2067)"/>
<path d="M67.7829 19.5739C68.4996 21.1006 68.3669 23.0079 67.3877 25.2141C66.4093 27.4186 64.6099 29.8601 62.1083 32.3865C57.1081 37.4362 49.3813 42.746 40.1098 47.0985C30.8382 51.4511 21.8172 54.0037 14.7379 54.6247C11.1962 54.9354 8.16837 54.7601 5.84727 54.1046C3.52448 53.4485 1.97231 52.3322 1.2556 50.8055C0.538887 49.2787 0.671643 47.3714 1.6508 45.1653C2.62925 42.9607 4.4286 40.5193 6.93021 37.9929C11.9304 32.9432 19.6572 27.6334 28.9287 23.2808C38.2003 18.9283 47.2214 16.3756 54.3006 15.7546C57.8424 15.4439 60.8702 15.6193 63.1913 16.2748C65.5141 16.9309 67.0662 18.0472 67.7829 19.5739Z" stroke="url(#paint2_linear_184_2067)"/>
<circle opacity="0.6" cx="60" cy="35" r="14" fill="url(#paint3_radial_184_2067)"/>
<defs>
<radialGradient id="paint0_radial_184_2067" cx="0" cy="0" r="1" gradientUnits="userSpaceOnUse" gradientTransform="translate(34.8506 29.9242) rotate(-146.6) scale(28.5772 28.627)">
<stop stop-color="#007383"/>
<stop offset="0.302083" stop-color="#00647A"/>
<stop offset="1" stop-color="#04435F" stop-opacity="0.26"/>
</radialGradient>
<linearGradient id="paint1_linear_184_2067" x1="30.7246" y1="20.4141" x2="20.6449" y2="51.5379" gradientUnits="userSpaceOnUse">
<stop stop-color="white" stop-opacity="0.84"/>
<stop offset="1" stop-color="#90E1FB" stop-opacity="0.63"/>
</linearGradient>
<linearGradient id="paint2_linear_184_2067" x1="39.7445" y1="51.535" x2="29.1539" y2="35.5773" gradientUnits="userSpaceOnUse">
<stop stop-color="white"/>
<stop offset="1" stop-color="white" stop-opacity="0"/>
<stop offset="1" stop-color="white" stop-opacity="0"/>
</linearGradient>
<radialGradient id="paint3_radial_184_2067" cx="0" cy="0" r="1" gradientUnits="userSpaceOnUse" gradientTransform="translate(60 35) rotate(90) scale(14)">
<stop stop-color="#6FF6FF" stop-opacity="0.8"/>
<stop offset="0.583333" stop-color="#6FF6FF" stop-opacity="0.32"/>
<stop offset="1" stop-color="#2AB1C4" stop-opacity="0"/>
</radialGradient>
</defs>
</svg>
