<svg width="70" height="70" viewBox="0 0 70 70" fill="none" xmlns="http://www.w3.org/2000/svg">
<ellipse rx="21.133" ry="21.1075" transform="matrix(-0.999782 0.0208896 -0.020876 -0.999782 29.7991 28.7258)" fill="url(#paint0_radial_184_2263)"/>
<circle opacity="0.6" cx="17" cy="17" r="17" fill="url(#paint1_radial_184_2263)"/>
<path d="M40.6802 24.2681C32.0059 24.4224 25.0989 31.5795 25.2532 40.2538" stroke="url(#paint2_linear_184_2263)" stroke-linecap="round"/>
<path d="M64.0001 26.9714C55.1621 15.9714 39.0802 14.2185 28.08 23.0563" stroke="url(#paint3_linear_184_2263)" stroke-linecap="round"/>
<path d="M57.75 46.4375H56.6875V44.375C56.6875 41.3665 55.4561 38.4811 53.2643 36.3538C51.0725 34.2264 48.0997 33.0312 45 33.0312C41.9003 33.0312 38.9275 34.2264 36.7357 36.3538C34.5439 38.4811 33.3125 41.3665 33.3125 44.375V46.4375H32.25C31.4046 46.4375 30.5939 46.7634 29.9961 47.3436C29.3983 47.9238 29.0625 48.7107 29.0625 49.5312V53.6562C29.0625 54.4768 29.3983 55.2637 29.9961 55.8439C30.5939 56.4241 31.4046 56.75 32.25 56.75H33.3125C33.3125 57.5705 33.6483 58.3574 34.2461 58.9376C34.8439 59.5178 35.6546 59.8438 36.5 59.8438C37.3454 59.8438 38.1561 59.5178 38.7539 58.9376C39.3517 58.3574 39.6875 57.5705 39.6875 56.75V46.4375C39.6878 45.9424 39.5656 45.4545 39.3313 45.0148C39.097 44.575 38.7574 44.1962 38.341 43.9103C37.9246 43.6244 37.4436 43.4396 36.9383 43.3715C36.4331 43.3034 35.9184 43.354 35.4375 43.5191C35.6617 41.2191 36.7615 39.083 38.5221 37.5282C40.2826 35.9735 42.5773 35.1119 44.9575 35.1119C47.3377 35.1119 49.6324 35.9735 51.3929 37.5282C53.1535 39.083 54.2533 41.2191 54.4775 43.5191C54.0015 43.3702 53.4961 43.3321 53.0022 43.4079C52.5082 43.4837 52.0396 43.6712 51.6341 43.9553C51.2287 44.2394 50.8978 44.6122 50.6682 45.0434C50.4386 45.4746 50.3167 45.9521 50.3125 46.4375V56.75C50.3139 57.2442 50.4373 57.7309 50.6723 58.1693C50.9074 58.6077 51.2472 58.9851 51.6633 59.2699C52.0795 59.5546 52.5599 59.7385 53.0643 59.806C53.5687 59.8736 54.0824 59.8229 54.5625 59.6581V61.9062H51.2687C51.1168 62.6557 50.7897 63.3613 50.3125 63.9688H55.625C55.9068 63.9688 56.177 63.8601 56.3763 63.6667C56.5756 63.4733 56.6875 63.211 56.6875 62.9375V56.75H57.75C58.5954 56.75 59.4061 56.4241 60.0039 55.8439C60.6017 55.2637 60.9375 54.4768 60.9375 53.6562V49.5312C60.9375 48.7107 60.6017 47.9238 60.0039 47.3436C59.4061 46.7634 58.5954 46.4375 57.75 46.4375V46.4375Z" fill="url(#paint4_linear_184_2263)"/>
<path d="M46.0625 57.7812H43.9375C43.0921 57.7812 42.2814 58.1072 41.6836 58.6874C41.0858 59.2676 40.75 60.0545 40.75 60.875C40.75 61.6955 41.0858 62.4824 41.6836 63.0626C42.2814 63.6428 43.0921 63.9688 43.9375 63.9688H46.0625C46.9079 63.9687 47.7186 63.6428 48.3164 63.0626C48.9142 62.4824 49.25 61.6955 49.25 60.875C49.25 60.0545 48.9142 59.2676 48.3164 58.6874C47.7186 58.1072 46.9079 57.7812 46.0625 57.7812Z" fill="url(#paint5_linear_184_2263)"/>
<defs>
<radialGradient id="paint0_radial_184_2263" cx="0" cy="0" r="1" gradientUnits="userSpaceOnUse" gradientTransform="translate(30.8133 26.4576) rotate(-146.6) scale(25.2667 25.3107)">
<stop stop-color="#007383"/>
<stop offset="0.302083" stop-color="#00647A"/>
<stop offset="1" stop-color="#04435F" stop-opacity="0.47"/>
</radialGradient>
<radialGradient id="paint1_radial_184_2263" cx="0" cy="0" r="1" gradientUnits="userSpaceOnUse" gradientTransform="translate(17 17) rotate(90) scale(17)">
<stop stop-color="#6FF6FF" stop-opacity="0.8"/>
<stop offset="0.583333" stop-color="#6FF6FF" stop-opacity="0.32"/>
<stop offset="1" stop-color="#2AB1C4" stop-opacity="0"/>
</radialGradient>
<linearGradient id="paint2_linear_184_2263" x1="32.0587" y1="40.0213" x2="25.2531" y2="40.2535" gradientUnits="userSpaceOnUse">
<stop stop-color="white" stop-opacity="0.49"/>
<stop offset="1" stop-color="white"/>
</linearGradient>
<linearGradient id="paint3_linear_184_2263" x1="35.1571" y1="31.5755" x2="28.0804" y2="23.0559" gradientUnits="userSpaceOnUse">
<stop stop-color="white"/>
<stop offset="0.84375" stop-color="white" stop-opacity="0.49"/>
</linearGradient>
<linearGradient id="paint4_linear_184_2263" x1="58.7776" y1="34.2004" x2="45.8349" y2="72.2458" gradientUnits="userSpaceOnUse">
<stop stop-color="white" stop-opacity="0.84"/>
<stop offset="1" stop-color="#90E1FB" stop-opacity="0.32"/>
</linearGradient>
<linearGradient id="paint5_linear_184_2263" x1="48.674" y1="58.0151" x2="46.6403" y2="65.9859" gradientUnits="userSpaceOnUse">
<stop stop-color="white" stop-opacity="0.84"/>
<stop offset="1" stop-color="#90E1FB" stop-opacity="0.32"/>
</linearGradient>
</defs>
</svg>
