<svg width="50" height="50" viewBox="0 0 50 50" fill="none" xmlns="http://www.w3.org/2000/svg">
<ellipse cx="28.1639" cy="22.2959" rx="13.6025" ry="13.586" transform="rotate(-70.9229 28.1639 22.2959)" fill="url(#paint0_radial_184_1951)"/>
<circle cx="33.3782" cy="14.5" r="10.5" fill="url(#paint1_radial_184_1951)"/>
<path d="M17.1036 31.5C15.8099 31.5399 14.7517 32.051 13.9292 33.0333H12.324C11.6691 33.0333 11.1181 32.8716 10.6708 32.5482C10.2236 32.2247 10 31.7516 10 31.1286C10 28.3095 10.4951 26.9 11.4854 26.9C11.5333 26.9 11.707 26.9839 12.0065 27.1516C12.306 27.3193 12.6953 27.489 13.1745 27.6607C13.6536 27.8324 14.1288 27.9182 14.6 27.9182C15.1351 27.9182 15.6661 27.8264 16.1932 27.6427C16.1533 27.9382 16.1333 28.2017 16.1333 28.4333C16.1333 29.5434 16.4568 30.5656 17.1036 31.5ZM29.9333 39.1307C29.9333 40.0891 29.6418 40.8457 29.0589 41.4008C28.4759 41.9558 27.7012 42.2333 26.7349 42.2333H16.2651C15.2988 42.2333 14.5241 41.9558 13.9411 41.4008C13.3582 40.8457 13.0667 40.0891 13.0667 39.1307C13.0667 38.7075 13.0806 38.2942 13.1086 37.8909C13.1365 37.4876 13.1924 37.0523 13.2763 36.5852C13.3602 36.118 13.466 35.6847 13.5938 35.2854C13.7215 34.8861 13.8932 34.4968 14.1089 34.1174C14.3245 33.7381 14.572 33.4147 14.8516 33.1471C15.1311 32.8796 15.4725 32.666 15.8758 32.5062C16.2791 32.3465 16.7243 32.2667 17.2115 32.2667C17.2913 32.2667 17.463 32.3525 17.7266 32.5242C17.9901 32.6959 18.2816 32.8876 18.601 33.0992C18.9205 33.3108 19.3477 33.5025 19.8828 33.6742C20.4179 33.8459 20.9569 33.9318 21.5 33.9318C22.0431 33.9318 22.5821 33.8459 23.1172 33.6742C23.6523 33.5025 24.0795 33.3108 24.399 33.0992C24.7184 32.8876 25.0099 32.6959 25.2734 32.5242C25.537 32.3525 25.7087 32.2667 25.7885 32.2667C26.2757 32.2667 26.7209 32.3465 27.1242 32.5062C27.5275 32.666 27.8689 32.8796 28.1484 33.1471C28.428 33.4147 28.6755 33.7381 28.8911 34.1174C29.1068 34.4968 29.2785 34.8861 29.4062 35.2854C29.534 35.6847 29.6398 36.118 29.7237 36.5852C29.8076 37.0523 29.8635 37.4876 29.8914 37.8909C29.9194 38.2942 29.9333 38.7075 29.9333 39.1307ZM17.6667 23.8333C17.6667 24.6799 17.3672 25.4026 16.7682 26.0016C16.1693 26.6005 15.4465 26.9 14.6 26.9C13.7535 26.9 13.0307 26.6005 12.4318 26.0016C11.8328 25.4026 11.5333 24.6799 11.5333 23.8333C11.5333 22.9868 11.8328 22.2641 12.4318 21.6651C13.0307 21.0661 13.7535 20.7667 14.6 20.7667C15.4465 20.7667 16.1693 21.0661 16.7682 21.6651C17.3672 22.2641 17.6667 22.9868 17.6667 23.8333ZM26.1 28.4333C26.1 29.7031 25.6508 30.7872 24.7523 31.6857C23.8539 32.5841 22.7698 33.0333 21.5 33.0333C20.2302 33.0333 19.1461 32.5841 18.2477 31.6857C17.3492 30.7872 16.9 29.7031 16.9 28.4333C16.9 27.1635 17.3492 26.0794 18.2477 25.181C19.1461 24.2825 20.2302 23.8333 21.5 23.8333C22.7698 23.8333 23.8539 24.2825 24.7523 25.181C25.6508 26.0794 26.1 27.1635 26.1 28.4333ZM33 31.1286C33 31.7516 32.7764 32.2247 32.3292 32.5482C31.8819 32.8716 31.3309 33.0333 30.676 33.0333H29.0708C28.2483 32.051 27.1901 31.5399 25.8964 31.5C26.5432 30.5656 26.8667 29.5434 26.8667 28.4333C26.8667 28.2017 26.8467 27.9382 26.8068 27.6427C27.3339 27.8264 27.8649 27.9182 28.4 27.9182C28.8712 27.9182 29.3464 27.8324 29.8255 27.6607C30.3047 27.489 30.694 27.3193 30.9935 27.1516C31.293 26.9839 31.4667 26.9 31.5146 26.9C32.5049 26.9 33 28.3095 33 31.1286ZM31.4667 23.8333C31.4667 24.6799 31.1672 25.4026 30.5682 26.0016C29.9693 26.6005 29.2465 26.9 28.4 26.9C27.5535 26.9 26.8307 26.6005 26.2318 26.0016C25.6328 25.4026 25.3333 24.6799 25.3333 23.8333C25.3333 22.9868 25.6328 22.2641 26.2318 21.6651C26.8307 21.0661 27.5535 20.7667 28.4 20.7667C29.2465 20.7667 29.9693 21.0661 30.5682 21.6651C31.1672 22.2641 31.4667 22.9868 31.4667 23.8333Z" fill="url(#paint2_linear_184_1951)"/>
<path d="M40.7564 41.4026C40.3345 42.2005 39.4634 42.7842 38.1226 43.0951C36.7834 43.4056 35.0393 43.4264 32.9954 43.149C28.9118 42.5947 23.7421 40.8653 18.4685 38.0772C13.1949 35.2892 8.85472 31.9909 6.09715 28.9284C4.71693 27.3956 3.75203 25.9426 3.25456 24.6611C2.75646 23.378 2.74832 22.3295 3.17015 21.5316C3.59199 20.7337 4.46307 20.15 5.80392 19.8391C7.14306 19.5286 8.88717 19.5078 10.9311 19.7852C15.0147 20.3395 20.1844 22.069 25.458 24.857C30.7316 27.6451 35.0718 30.9433 37.8294 34.0058C39.2096 35.5386 40.1745 36.9916 40.6719 38.2731C41.17 39.5562 41.1782 40.6048 40.7564 41.4026Z" stroke="url(#paint3_linear_184_1951)"/>
<defs>
<radialGradient id="paint0_radial_184_1951" cx="0" cy="0" r="1" gradientUnits="userSpaceOnUse" gradientTransform="translate(33.6521 25.8451) rotate(-142.391) scale(19.0645 19.0978)">
<stop stop-color="#FFE78B"/>
<stop offset="0.364583" stop-color="#B0A476"/>
<stop offset="1" stop-color="#544B34" stop-opacity="0.16"/>
</radialGradient>
<radialGradient id="paint1_radial_184_1951" cx="0" cy="0" r="1" gradientUnits="userSpaceOnUse" gradientTransform="translate(33.3782 14.5) rotate(90) scale(10.5)">
<stop stop-color="#FFF1C0" stop-opacity="0.94"/>
<stop offset="0.588542" stop-color="#FFF1C0" stop-opacity="0.31"/>
<stop offset="1" stop-color="#FFF1C0" stop-opacity="0"/>
</radialGradient>
<linearGradient id="paint2_linear_184_1951" x1="26.676" y1="23.7559" x2="12.4608" y2="43.4558" gradientUnits="userSpaceOnUse">
<stop stop-color="white"/>
<stop offset="1" stop-color="#FAE7A6" stop-opacity="0.5"/>
</linearGradient>
<linearGradient id="paint3_linear_184_1951" x1="16.1729" y1="39.6498" x2="19.8967" y2="29.0999" gradientUnits="userSpaceOnUse">
<stop stop-color="white"/>
<stop offset="1" stop-color="white" stop-opacity="0"/>
<stop offset="1" stop-color="white" stop-opacity="0"/>
</linearGradient>
</defs>
</svg>
