<svg width="70" height="70" viewBox="0 0 70 70" fill="none" xmlns="http://www.w3.org/2000/svg">
<ellipse cx="36.8271" cy="36.8746" rx="20.6235" ry="20.5987" transform="rotate(-70.9229 36.8271 36.8746)" fill="url(#paint0_radial_184_2125)"/>
<path d="M62.0516 20.9826C62.629 22.2126 62.5276 23.7603 61.7243 25.5701C60.9218 27.3783 59.4429 29.3868 57.3804 31.4697C53.2583 35.6327 46.8839 40.014 39.2309 43.6067C31.5779 47.1995 24.1351 49.3047 18.299 49.8167C15.3789 50.0728 12.889 49.9275 10.9852 49.3898C9.07969 48.8517 7.82423 47.941 7.2468 46.711C6.66938 45.481 6.77081 43.9333 7.57407 42.1235C8.37661 40.3153 9.85547 38.3068 11.918 36.2239C16.0401 32.0609 22.4145 27.6796 30.0675 24.0869C37.7205 20.4941 45.1633 18.3889 50.9993 17.8769C53.9195 17.6208 56.4094 17.7661 58.3132 18.3038C60.2187 18.8419 61.4742 19.7526 62.0516 20.9826Z" stroke="url(#paint1_linear_184_2125)"/>
<path fill-rule="evenodd" clip-rule="evenodd" d="M36.2218 8.66663C39.7578 8.66663 41.598 9.89996 42.7166 10.7333C42.966 10.9166 43.167 11.1499 43.3045 11.4156C43.4421 11.6812 43.5125 11.9722 43.5104 12.2666V28.5C43.5008 28.6222 43.4504 28.7387 43.3661 28.8333C43.32 28.8783 43.2638 28.9136 43.2015 28.9366C43.1392 28.9596 43.0723 28.9699 43.0053 28.9666C42.9436 28.9696 42.882 28.9591 42.8256 28.9359C42.7691 28.9128 42.7194 28.8776 42.6805 28.8333C41.562 27.9666 39.3609 26.8333 36.1135 26.8333C30.7011 26.8333 29.1135 31.5 29.1135 31.5V13.8333C29.1157 12.9266 29.446 12.0467 30.0517 11.3333C31.062 10.1 32.9022 8.66663 36.2218 8.66663ZM20.8506 8.66663C24.1702 8.66663 26.0104 10.1 27.0568 11.3333C27.6625 12.0467 27.9927 12.9266 27.995 13.8333V31.5C27.995 31.5 26.4073 26.8333 20.995 26.8333C17.7475 26.8333 15.5465 27.9666 14.4279 28.8333C14.3269 28.8915 14.2176 28.9363 14.1032 28.9666C14.0364 28.9681 13.97 28.9571 13.908 28.9342C13.846 28.9113 13.7896 28.8769 13.7424 28.8333C13.6951 28.7897 13.658 28.7376 13.6332 28.6803C13.6084 28.623 13.5964 28.5617 13.598 28.5V12.2666C13.5998 11.9728 13.6719 11.683 13.8092 11.4179C13.9464 11.1528 14.1454 10.919 14.3919 10.7333C15.4743 9.89996 17.3145 8.66663 20.8506 8.66663Z" fill="url(#paint2_linear_184_2125)"/>
<circle cx="47.5" cy="37.5" r="22.5" fill="url(#paint3_radial_184_2125)"/>
<defs>
<radialGradient id="paint0_radial_184_2125" cx="0" cy="0" r="1" gradientUnits="userSpaceOnUse" gradientTransform="translate(45.1481 42.2558) rotate(-142.391) scale(28.905 28.9553)">
<stop stop-color="#FFE78B"/>
<stop offset="0.364583" stop-color="#B0A476"/>
<stop offset="1" stop-color="#544B34" stop-opacity="0.16"/>
</radialGradient>
<linearGradient id="paint1_linear_184_2125" x1="38.9661" y1="47.3507" x2="30.2166" y2="34.1671" gradientUnits="userSpaceOnUse">
<stop stop-color="white"/>
<stop offset="1" stop-color="white" stop-opacity="0"/>
<stop offset="1" stop-color="white" stop-opacity="0"/>
</linearGradient>
<linearGradient id="paint2_linear_184_2125" x1="35.2858" y1="11.8462" x2="21.3384" y2="35.4796" gradientUnits="userSpaceOnUse">
<stop stop-color="white"/>
<stop offset="1" stop-color="#FAE7A6" stop-opacity="0.5"/>
</linearGradient>
<radialGradient id="paint3_radial_184_2125" cx="0" cy="0" r="1" gradientUnits="userSpaceOnUse" gradientTransform="translate(47.5 37.5) rotate(90) scale(22.5)">
<stop stop-color="#FFF1C0" stop-opacity="0.94"/>
<stop offset="0.588542" stop-color="#FFF1C0" stop-opacity="0.31"/>
<stop offset="1" stop-color="#FFF1C0" stop-opacity="0"/>
</radialGradient>
</defs>
</svg>
