<svg width="375" height="375" viewBox="0 0 375 375" fill="none" xmlns="http://www.w3.org/2000/svg">
<path d="M355.86 144.456C365.22 164.394 355.927 190.967 332.953 217.911C310.012 244.817 273.557 271.926 229.019 292.834C184.481 313.743 140.337 324.472 104.982 324.934C69.5766 325.396 43.1961 315.57 33.8362 295.632C24.4762 275.693 33.7695 249.12 56.7431 222.176C79.6842 195.27 116.139 168.161 160.677 147.253C205.215 126.344 249.359 115.615 284.715 115.154C320.12 114.692 346.5 124.517 355.86 144.456Z" stroke="url(#paint0_linear_184_1925)"/>
<ellipse cx="205.607" cy="152.679" rx="104.464" ry="104.464" fill="url(#paint1_radial_184_1925)"/>
<path d="M111.857 238.605V252.455C111.857 263.905 139.752 273.214 174.134 273.214C208.516 273.214 236.411 263.905 236.411 252.455V238.605C223.015 248.044 198.526 252.455 174.134 252.455C149.742 252.455 125.253 248.044 111.857 238.605ZM215.652 148.661C250.034 148.661 277.929 139.352 277.929 127.902C277.929 116.452 250.034 107.143 215.652 107.143C181.27 107.143 153.375 116.452 153.375 127.902C153.375 139.352 181.27 148.661 215.652 148.661ZM111.857 204.58V221.317C111.857 232.767 139.752 242.076 174.134 242.076C208.516 242.076 236.411 232.767 236.411 221.317V204.58C223.015 215.608 198.493 221.317 174.134 221.317C149.775 221.317 125.253 215.608 111.857 204.58ZM246.79 208.148C265.376 204.548 277.929 197.866 277.929 190.179V176.328C270.404 181.648 259.343 185.281 246.79 187.519V208.148ZM174.134 159.04C139.752 159.04 111.857 170.652 111.857 184.989C111.857 199.325 139.752 210.937 174.134 210.937C208.516 210.937 236.411 199.325 236.411 184.989C236.411 170.652 208.516 159.04 174.134 159.04ZM245.266 177.302C264.727 173.798 277.929 166.922 277.929 159.04V145.19C266.414 153.331 246.628 157.71 225.804 158.748C235.373 163.387 242.411 169.614 245.266 177.302Z" fill="url(#paint2_linear_184_1925)"/>
<defs>
<linearGradient id="paint0_linear_184_1925" x1="228.088" y1="315.822" x2="162.514" y2="223.992" gradientUnits="userSpaceOnUse">
<stop stop-color="white"/>
<stop offset="1" stop-color="white" stop-opacity="0"/>
<stop offset="1" stop-color="white" stop-opacity="0"/>
</linearGradient>
<radialGradient id="paint1_radial_184_1925" cx="0" cy="0" r="1" gradientUnits="userSpaceOnUse" gradientTransform="translate(205.607 152.679) rotate(90) scale(104.464)">
<stop stop-color="#FFF1C0" stop-opacity="0.94"/>
<stop offset="0.526042" stop-color="#FFF1C0" stop-opacity="0.31"/>
<stop offset="1" stop-color="#FFF1C0" stop-opacity="0"/>
</radialGradient>
<linearGradient id="paint2_linear_184_1925" x1="232.266" y1="130.268" x2="120.12" y2="275.323" gradientUnits="userSpaceOnUse">
<stop stop-color="white"/>
<stop offset="1" stop-color="#FAE7A6" stop-opacity="0.5"/>
</linearGradient>
</defs>
</svg>
