<svg width="70" height="70" viewBox="0 0 70 70" fill="none" xmlns="http://www.w3.org/2000/svg">
<ellipse rx="22.6886" ry="22.6613" transform="matrix(-0.715028 0.699096 -0.699086 -0.715037 35.0652 35.0653)" fill="url(#paint0_radial_184_2078)"/>
<path d="M61.6095 47.994C61.0865 49.182 59.9075 50.0832 58.0925 50.6434C56.2791 51.2032 53.8931 51.4006 51.0833 51.2224C45.4679 50.8662 38.2713 49.0174 30.8376 45.7443C23.4039 42.4713 17.1808 38.4115 13.1264 34.51C11.0976 32.5578 9.63212 30.6646 8.82059 28.9491C8.0083 27.232 7.87695 25.7539 8.39999 24.566C8.92304 23.3781 10.102 22.4769 11.917 21.9166C13.7304 21.3568 16.1164 21.1594 18.9262 21.3376C24.5416 21.6938 31.7382 23.5427 39.1719 26.8157C46.6056 30.0888 52.8287 34.1486 56.8831 38.05C58.9119 40.0022 60.3774 41.8954 61.1889 43.6109C62.0012 45.328 62.1326 46.8061 61.6095 47.994Z" stroke="url(#paint1_linear_184_2078)"/>
<circle cx="24.5" cy="42.5" r="12.5" fill="url(#paint2_radial_184_2078)"/>
<path fill-rule="evenodd" clip-rule="evenodd" d="M38.5334 14.3C38.5334 13.69 38.7758 13.105 39.2071 12.6737C39.6384 12.2423 40.2234 12 40.8334 12H53.4175L58.4668 17.0493V32.7C58.4668 33.31 58.2245 33.895 57.7931 34.3263C57.3618 34.7577 56.7768 35 56.1668 35H40.8334C40.2234 35 39.6384 34.7577 39.2071 34.3263C38.7758 33.895 38.5334 33.31 38.5334 32.7V14.3ZM47.7334 18.1333H43.1334V19.6667H47.7334V18.1333ZM53.8668 22.7333H43.1334V24.2667H53.8668V22.7333ZM46.6678 28.7256C46.0483 28.8912 45.5638 29.365 45.3951 29.8756L43.9384 29.3911C44.2804 28.3683 45.1758 27.5388 46.2691 27.2444C47.3532 26.9531 48.5906 27.1984 49.6608 28.1813C49.9714 28.0902 50.2914 28.0351 50.6146 28.0172C51.4426 27.9727 52.1832 28.1813 52.8195 28.4465C53.2872 28.6413 53.7395 28.8866 54.1228 29.0936C54.2424 29.1611 54.3574 29.2224 54.4632 29.2776C54.9585 29.5383 55.2299 29.6333 55.4001 29.6333V31.1667C54.8021 31.1667 54.2133 30.8784 53.7502 30.6361C53.6107 30.5625 53.4717 30.4879 53.3332 30.4123C52.975 30.2096 52.6065 30.0259 52.2292 29.8618C51.717 29.6471 51.2126 29.5214 50.6974 29.549C50.6204 29.5527 50.5437 29.5599 50.4674 29.5705L50.4689 29.5919C50.5103 30.0887 50.3048 30.4981 50.0396 30.7925C49.552 31.3353 48.7562 31.6205 48.1582 31.7279C47.8483 31.79 47.5306 31.803 47.2167 31.7662C47.0387 31.7434 46.8668 31.6861 46.7107 31.5975C46.5893 31.5277 46.4848 31.432 46.4045 31.3173C46.3242 31.2025 46.2702 31.0716 46.2461 30.9336C46.2084 30.6756 46.2692 30.4129 46.4163 30.1976C46.5277 30.034 46.6631 29.8883 46.818 29.7652C47.1094 29.5245 47.531 29.2638 48.0968 28.9786L48.1382 28.9479C47.9208 28.8129 47.6782 28.7236 47.4251 28.6854C47.172 28.6472 46.9139 28.6608 46.6662 28.7256H46.6678Z" fill="url(#paint3_linear_184_2078)"/>
<defs>
<radialGradient id="paint0_radial_184_2078" cx="0" cy="0" r="1" gradientUnits="userSpaceOnUse" gradientTransform="translate(33.0815 28.4052) rotate(-146.6) scale(27.1266 27.1739)">
<stop stop-color="#0047A0"/>
<stop offset="0.395833" stop-color="#003C87"/>
<stop offset="1" stop-color="#091E38" stop-opacity="0.73"/>
</radialGradient>
<linearGradient id="paint1_linear_184_2078" x1="27.9509" y1="47.9348" x2="36.2428" y2="35.0325" gradientUnits="userSpaceOnUse">
<stop stop-color="white"/>
<stop offset="1" stop-color="white" stop-opacity="0"/>
<stop offset="1" stop-color="white" stop-opacity="0"/>
</linearGradient>
<radialGradient id="paint2_radial_184_2078" cx="0" cy="0" r="1" gradientUnits="userSpaceOnUse" gradientTransform="translate(24.5 42.5) rotate(90) scale(12.5)">
<stop stop-color="#6FBAFF" stop-opacity="0.8"/>
<stop offset="0.583333" stop-color="#6FC2FF" stop-opacity="0.4"/>
<stop offset="1" stop-color="#6FBAFF" stop-opacity="0"/>
</radialGradient>
<linearGradient id="paint3_linear_184_2078" x1="57.1161" y1="12.8692" x2="46.1475" y2="39.9908" gradientUnits="userSpaceOnUse">
<stop stop-color="white" stop-opacity="0.84"/>
<stop offset="1" stop-color="#90BFFB" stop-opacity="0.32"/>
</linearGradient>
</defs>
</svg>
