<svg width="50" height="50" viewBox="0 0 50 50" fill="none" xmlns="http://www.w3.org/2000/svg">
<ellipse rx="16.2062" ry="16.1866" transform="matrix(-0.715028 0.699096 -0.699086 -0.715037 25.0465 29.0466)" fill="url(#paint0_radial_184_1943)"/>
<path d="M43.8762 38.2239C43.5254 39.0204 42.727 39.644 41.4526 40.0374C40.1798 40.4303 38.4945 40.5715 36.4972 40.4449C32.5069 40.1918 27.3831 38.8767 22.0845 36.5438C16.786 34.2108 12.3562 31.3195 9.47513 28.5471C8.03306 27.1594 6.99926 25.821 6.42966 24.6169C5.85931 23.4112 5.78014 22.4012 6.13085 21.6047C6.48155 20.8082 7.27998 20.1846 8.55441 19.7912C9.82717 19.3983 11.5125 19.2571 13.5098 19.3837C17.5001 19.6368 22.6239 20.9519 27.9225 23.2848C33.221 25.6178 37.6508 28.5091 40.5319 31.2815C41.9739 32.6692 43.0077 34.0077 43.5773 35.2117C44.1477 36.4174 44.2269 37.4274 43.8762 38.2239Z" stroke="url(#paint1_linear_184_1943)"/>
<circle cx="18.9286" cy="33.9286" r="8.92857" fill="url(#paint2_radial_184_1943)"/>
<path fill-rule="evenodd" clip-rule="evenodd" d="M24.3441 11.377C24.0835 11.3316 23.8181 11.303 23.545 11.303C21.0354 11.303 19 13.338 19 15.8489C19 18.3589 21.0354 20.3942 23.545 20.3942H31.8784C33.5516 20.3942 34.9088 21.751 34.9088 23.4247V27.97C34.9088 25.4601 37.7011 23.4247 40.2123 23.4247C42.3044 23.4247 44 21.729 44 19.6366C44 17.9569 42.9004 16.5499 41.3885 16.0533C41.6054 15.523 41.7269 14.9433 41.7269 14.3334C41.7269 11.8235 39.6915 9.78765 37.1819 9.78765C36.7847 9.78765 36.4018 9.84428 36.0348 9.9394C35.1734 7.64032 32.9633 6 30.363 6C27.2466 6 24.6835 8.35217 24.3441 11.377ZM28.5695 14.9081C28.5695 15.4195 28.1549 15.8342 27.6434 15.8342C27.132 15.8342 26.7173 15.4195 26.7173 14.9081C26.7173 14.3966 27.132 13.982 27.6434 13.982C28.1549 13.982 28.5695 14.3966 28.5695 14.9081ZM31.9211 14.9081C31.9211 15.4195 31.5064 15.8342 30.995 15.8342C30.4835 15.8342 30.0689 15.4195 30.0689 14.9081C30.0689 14.3966 30.4835 13.982 30.995 13.982C31.5064 13.982 31.9211 14.3966 31.9211 14.9081ZM34.3465 15.8342C34.858 15.8342 35.2726 15.4195 35.2726 14.9081C35.2726 14.3966 34.858 13.982 34.3465 13.982C33.8351 13.982 33.4205 14.3966 33.4205 14.9081C33.4205 15.4195 33.8351 15.8342 34.3465 15.8342Z" fill="url(#paint3_linear_184_1943)"/>
<defs>
<radialGradient id="paint0_radial_184_1943" cx="0" cy="0" r="1" gradientUnits="userSpaceOnUse" gradientTransform="translate(23.6297 20.2894) rotate(-146.6) scale(19.3761 19.4099)">
<stop stop-color="#0047A0"/>
<stop offset="0.395833" stop-color="#003C87"/>
<stop offset="1" stop-color="#091E38" stop-opacity="0.73"/>
</radialGradient>
<linearGradient id="paint1_linear_184_1943" x1="19.9651" y1="38.2392" x2="25.8878" y2="29.0232" gradientUnits="userSpaceOnUse">
<stop stop-color="white"/>
<stop offset="1" stop-color="white" stop-opacity="0"/>
<stop offset="1" stop-color="white" stop-opacity="0"/>
</linearGradient>
<radialGradient id="paint2_radial_184_1943" cx="0" cy="0" r="1" gradientUnits="userSpaceOnUse" gradientTransform="translate(18.9286 33.9286) rotate(90) scale(8.92857)">
<stop stop-color="#6FBAFF" stop-opacity="0.8"/>
<stop offset="0.583333" stop-color="#6FC2FF" stop-opacity="0.4"/>
<stop offset="1" stop-color="#6FBAFF" stop-opacity="0"/>
</radialGradient>
<linearGradient id="paint3_linear_184_1943" x1="42.306" y1="6.83029" x2="33.8255" y2="34.3625" gradientUnits="userSpaceOnUse">
<stop stop-color="white" stop-opacity="0.84"/>
<stop offset="1" stop-color="#90BFFB" stop-opacity="0.32"/>
</linearGradient>
</defs>
</svg>
