<svg width="90" height="90" viewBox="0 0 90 90" fill="none" xmlns="http://www.w3.org/2000/svg">
<ellipse cx="45.2267" cy="51.2261" rx="29.1709" ry="29.1357" transform="rotate(135.646 45.2267 51.2261)" fill="url(#paint0_radial_184_2015)"/>
<path d="M70.6894 16.9999C70.6894 16.9999 55.8276 16.9652 44.2414 28.5514C43.7178 29.0809 43.2415 29.6553 42.8179 30.2678C40.7639 30.1039 37.6157 30.1635 36.0102 31.7723C32.253 35.5296 31 41.7928 31 41.7928L39.7625 40.5414V42.9613L44.728 47.9268H47.1479L45.8949 56.691C45.8949 56.691 52.1581 55.438 55.9153 51.6808C57.5225 50.0736 57.5821 46.9271 57.4199 44.873C58.0328 44.45 58.6071 43.9737 59.1363 43.4496C70.7225 31.8634 70.6894 16.9999 70.6894 16.9999V16.9999ZM54.1708 30.2082C54.1608 29.7674 54.239 29.329 54.4008 28.9188C54.5626 28.5086 54.8047 28.1349 55.1129 27.8195C55.4211 27.5042 55.7892 27.2536 56.1956 27.0825C56.602 26.9113 57.0385 26.8231 57.4794 26.823C57.9204 26.8229 58.3569 26.9109 58.7634 27.0818C59.1699 27.2527 59.5381 27.5031 59.8465 27.8183C60.1548 28.1335 60.3971 28.5071 60.5591 28.9172C60.7211 29.3274 60.7995 29.7657 60.7898 30.2066C60.7707 31.0715 60.4137 31.8946 59.7953 32.4996C59.1769 33.1046 58.3462 33.4435 57.4811 33.4437C56.6159 33.4439 55.7851 33.1055 55.1664 32.5007C54.5477 31.896 54.1903 31.0731 54.1708 30.2082Z" fill="url(#paint1_linear_184_2015)"/>
<path d="M41.0088 49.6C39.4877 51.1211 37.5594 50.1231 37.5594 50.1231C37.5594 50.1231 36.6193 48.1369 38.0824 46.6737C38.2082 46.5479 38.3622 46.4767 38.5095 46.3907L37.4915 45.3727C36.9602 45.5548 36.4587 45.8428 36.035 46.2665C34.5486 47.7529 34.6347 53.0478 34.6347 53.0478C34.6347 53.0478 39.9313 53.1322 41.416 51.6475C41.8397 51.2238 42.1277 50.7222 42.3098 50.1909L41.2935 49.1747C41.2058 49.3203 41.1346 49.4742 41.0088 49.6V49.6Z" fill="url(#paint2_linear_184_2015)" fill-opacity="0.51"/>
<path d="M82.0366 45.9397C82.3516 47.6363 81.727 49.4887 80.1902 51.4163C78.6545 53.3426 76.2468 55.2907 73.1243 57.1411C66.8829 60.8399 57.8818 64.0921 47.6021 66.0006C37.3225 67.9091 27.7539 68.1044 20.6007 66.8924C17.0221 66.286 14.0757 65.332 11.9509 64.0853C9.82455 62.8377 8.57666 61.333 8.26168 59.6363C7.94669 57.9397 8.57131 56.0873 10.1081 54.1597C11.6439 52.2334 14.0515 50.2853 17.174 48.4349C23.4154 44.7361 32.4165 41.4839 42.6962 39.5754C52.9758 37.667 62.5445 37.4716 69.6976 38.6836C73.2762 39.29 76.2226 40.244 78.3474 41.4907C80.4738 42.7383 81.7217 44.2431 82.0366 45.9397Z" stroke="url(#paint3_linear_184_2015)"/>
<circle cx="24" cy="67" r="14" fill="url(#paint4_radial_184_2015)"/>
<defs>
<radialGradient id="paint0_radial_184_2015" cx="0" cy="0" r="1" gradientUnits="userSpaceOnUse" gradientTransform="translate(58.5889 58.6111) rotate(-146.6) scale(34.8768 34.9376)">
<stop stop-color="#0047A0"/>
<stop offset="0.395833" stop-color="#003C87"/>
<stop offset="1" stop-color="#0A1420"/>
</radialGradient>
<linearGradient id="paint1_linear_184_2015" x1="68" y1="18.4999" x2="51" y2="66.9999" gradientUnits="userSpaceOnUse">
<stop stop-color="white" stop-opacity="0.84"/>
<stop offset="1" stop-color="#90BFFB" stop-opacity="0.32"/>
</linearGradient>
<linearGradient id="paint2_linear_184_2015" x1="38.4718" y1="45.3727" x2="38" y2="57.9999" gradientUnits="userSpaceOnUse">
<stop stop-color="white"/>
<stop offset="1" stop-color="white" stop-opacity="0.33"/>
</linearGradient>
<linearGradient id="paint3_linear_184_2015" x1="46.0958" y1="70.2777" x2="45.561" y2="50.5662" gradientUnits="userSpaceOnUse">
<stop stop-color="white"/>
<stop offset="1" stop-color="white" stop-opacity="0"/>
<stop offset="1" stop-color="white" stop-opacity="0"/>
</linearGradient>
<radialGradient id="paint4_radial_184_2015" cx="0" cy="0" r="1" gradientUnits="userSpaceOnUse" gradientTransform="translate(24 67) rotate(90) scale(14)">
<stop stop-color="#6FBAFF" stop-opacity="0.8"/>
<stop offset="0.5" stop-color="#6FC2FF" stop-opacity="0.46"/>
<stop offset="1" stop-color="#6FD4FF" stop-opacity="0"/>
</radialGradient>
</defs>
</svg>
