<svg width="1440" height="2399" viewBox="0 0 1440 2399" fill="none" xmlns="http://www.w3.org/2000/svg">
<ellipse cx="798.601" cy="1199.37" rx="1665.04" ry="696.321" transform="rotate(-18.9312 798.601 1199.37)" fill="url(#paint0_radial_184_2941)"/>
<circle cx="1021.25" cy="1067.25" r="193.433" transform="rotate(-32.6703 1021.25 1067.25)" fill="url(#paint1_radial_184_2941)"/>
<ellipse cx="1012.53" cy="1076.6" rx="120.824" ry="120.678" transform="rotate(-63.8947 1012.53 1076.6)" fill="url(#paint2_radial_184_2941)"/>
<ellipse rx="287.986" ry="287.628" transform="matrix(-0.687081 -0.726581 0.726132 -0.687555 719.986 955.667)" fill="url(#paint3_radial_184_2941)"/>
<path d="M1629.91 598.303C1646.3 644.386 1636.12 697.527 1603.56 754.219C1571 810.91 1516.08 871.091 1443.09 931.195C1297.13 1051.4 1079 1171.23 823.307 1262.16C567.613 1353.1 322.808 1397.92 133.721 1396.87C39.1746 1396.35 -41.4129 1384.36 -102.459 1360.96C-163.507 1337.56 -204.949 1302.78 -221.338 1256.7C-237.727 1210.61 -227.556 1157.47 -194.993 1100.78C-162.431 1044.09 -107.51 983.91 -34.5256 923.806C111.44 803.6 329.567 683.773 585.261 592.836C840.954 501.899 1085.76 457.084 1274.85 458.128C1369.39 458.65 1449.98 470.637 1511.03 494.036C1572.07 517.436 1613.52 552.22 1629.91 598.303Z" stroke="url(#paint4_linear_184_2941)"/>
<path d="M1377.08 666.756C1388.73 699.526 1380.64 737.65 1355.86 778.592C1331.09 819.529 1289.68 863.213 1234.85 907.04C1125.19 994.692 961.958 1082.85 771.135 1150.71C580.313 1218.58 398.071 1253.29 257.696 1254.56C187.505 1255.2 127.81 1247.47 82.7515 1231.37C37.6879 1215.27 7.33765 1190.82 -4.31703 1158.05C-15.9717 1125.28 -7.87655 1087.15 16.899 1046.21C41.6721 1005.27 83.0832 961.591 137.913 917.763C247.567 830.111 410.801 741.955 601.624 674.089C792.446 606.223 974.688 571.511 1115.06 570.24C1185.25 569.604 1244.95 577.329 1290.01 593.431C1335.07 609.534 1365.42 633.986 1377.08 666.756Z" stroke="url(#paint5_linear_184_2941)"/>
<path d="M1115.38 763.796C1122.19 782.962 1116.93 805.489 1101.4 829.878C1085.87 854.26 1060.13 880.423 1026.15 906.8C958.203 959.549 857.42 1013.08 739.909 1054.87C622.397 1096.67 510.445 1118.79 424.448 1120.8C381.446 1121.8 344.963 1117.76 317.528 1108.66C290.084 1099.56 271.78 1085.41 264.964 1066.24C258.147 1047.08 263.409 1024.55 278.94 1000.16C294.467 975.781 320.211 949.618 354.188 923.241C422.137 870.492 522.92 816.96 640.431 775.167C757.942 733.374 869.894 711.247 955.891 709.246C998.893 708.245 1035.38 712.277 1062.81 721.38C1090.26 730.484 1108.56 744.63 1115.38 763.796Z" stroke="url(#paint6_linear_184_2941)"/>
<defs>
<radialGradient id="paint0_radial_184_2941" cx="0" cy="0" r="1" gradientUnits="userSpaceOnUse" gradientTransform="translate(798.601 1199.37) rotate(91.5872) scale(612.328 1464.05)">
<stop stop-color="#005AAD"/>
<stop offset="1" stop-color="#17365D" stop-opacity="0"/>
</radialGradient>
<radialGradient id="paint1_radial_184_2941" cx="0" cy="0" r="1" gradientUnits="userSpaceOnUse" gradientTransform="translate(1021.25 1067.25) rotate(90.6639) scale(170.047 170.137)">
<stop stop-color="#FFE78B"/>
<stop offset="0.447917" stop-color="#FFE78B" stop-opacity="0.479167"/>
<stop offset="1" stop-color="#766D4B" stop-opacity="0"/>
</radialGradient>
<radialGradient id="paint2_radial_184_2941" cx="0" cy="0" r="1" gradientUnits="userSpaceOnUse" gradientTransform="translate(1061.28 1108.13) rotate(-142.391) scale(169.34 169.636)">
<stop stop-color="#FFE78B"/>
<stop offset="0.302083" stop-color="#FFE78B" stop-opacity="0.5"/>
<stop offset="1" stop-color="#17365D" stop-opacity="0"/>
</radialGradient>
<radialGradient id="paint3_radial_184_2941" cx="0" cy="0" r="1" gradientUnits="userSpaceOnUse" gradientTransform="translate(301.068 448.071) rotate(-96.7951) scale(393.131 393.83)">
<stop stop-color="#003A83"/>
<stop offset="0.359375" stop-color="#00367A"/>
<stop offset="1" stop-color="#001835" stop-opacity="0.24"/>
</radialGradient>
<linearGradient id="paint4_linear_184_2941" x1="621.614" y1="620.627" x2="923.456" y2="1256.95" gradientUnits="userSpaceOnUse">
<stop offset="0.338542" stop-color="white" stop-opacity="0"/>
<stop offset="1" stop-color="white" stop-opacity="0.18"/>
</linearGradient>
<linearGradient id="paint5_linear_184_2941" x1="663.421" y1="744.61" x2="909.128" y2="1092.63" gradientUnits="userSpaceOnUse">
<stop offset="0.338542" stop-color="white" stop-opacity="0"/>
<stop offset="1" stop-color="white" stop-opacity="0.18"/>
</linearGradient>
<linearGradient id="paint6_linear_184_2941" x1="774.816" y1="735.538" x2="943.739" y2="951.86" gradientUnits="userSpaceOnUse">
<stop offset="0.338542" stop-color="white" stop-opacity="0"/>
<stop offset="1" stop-color="white" stop-opacity="0.18"/>
</linearGradient>
</defs>
</svg>
