<svg width="1440" height="2428" viewBox="0 0 1440 2428" fill="none" xmlns="http://www.w3.org/2000/svg">
<circle cx="1333.6" cy="1643.6" r="549.074" transform="rotate(-32.6703 1333.6 1643.6)" fill="url(#paint0_radial_184_2942)"/>
<ellipse rx="293.744" ry="293.379" transform="matrix(-0.687081 -0.726581 0.726132 -0.687555 1329.86 1525.15)" fill="url(#paint1_radial_184_2942)"/>
<circle cx="1109.67" cy="1213.67" r="878.456" transform="rotate(-32.6703 1109.67 1213.67)" fill="url(#paint2_radial_184_2942)"/>
<ellipse cx="1155.96" cy="1766.01" rx="90.475" ry="90.3659" transform="rotate(-63.8947 1155.96 1766.01)" fill="url(#paint3_radial_184_2942)"/>
<path d="M1443.75 1921.03C1436.28 1935.45 1421.06 1945.06 1399.79 1950.03C1378.53 1955 1351.29 1955.31 1319.93 1951.18C1257.21 1942.92 1178.08 1916.92 1097.43 1875.12C1016.78 1833.33 949.913 1783.66 907.001 1737.18C885.544 1713.93 870.095 1691.5 861.896 1671.26C853.696 1651.02 852.771 1633.04 860.245 1618.62C867.719 1604.2 882.944 1594.59 904.209 1589.62C925.471 1584.65 952.705 1584.34 984.069 1588.47C1046.79 1596.73 1125.92 1622.73 1206.57 1664.53C1287.22 1706.33 1354.09 1755.99 1397 1802.48C1418.46 1825.72 1433.91 1848.15 1442.1 1868.39C1450.3 1888.63 1451.23 1906.61 1443.75 1921.03Z" stroke="url(#paint4_linear_184_2942)"/>
<path d="M1369.24 1874.78C1363.94 1885 1352.87 1891.69 1337.24 1894.97C1321.61 1898.25 1301.5 1898.09 1278.27 1894.69C1231.81 1887.88 1172.97 1868.08 1112.79 1836.89C1052.6 1805.7 1002.51 1769.04 970.155 1735.01C953.978 1717.99 942.259 1701.64 935.927 1686.98C929.594 1672.32 928.679 1659.42 933.973 1649.2C939.267 1638.99 950.336 1632.3 965.968 1629.02C981.595 1625.74 1001.71 1625.89 1024.94 1629.3C1071.4 1636.11 1130.24 1655.91 1190.42 1687.1C1250.6 1718.29 1300.7 1754.94 1333.05 1788.98C1349.23 1806 1360.95 1822.34 1367.28 1837C1373.62 1851.67 1374.53 1864.57 1369.24 1874.78Z" stroke="url(#paint5_linear_184_2942)"/>
<path d="M1285.7 1832.9C1282.63 1838.81 1276.03 1842.64 1266.56 1844.4C1257.1 1846.16 1244.85 1845.84 1230.66 1843.55C1202.26 1838.98 1166.17 1826.55 1129.11 1807.35C1092.06 1788.15 1061.1 1765.82 1040.99 1745.26C1030.94 1734.97 1023.62 1725.15 1019.6 1716.41C1015.58 1707.65 1014.9 1700.06 1017.97 1694.14C1021.03 1688.23 1027.63 1684.4 1037.1 1682.64C1046.56 1680.88 1058.81 1681.2 1073.01 1683.49C1101.4 1688.06 1137.49 1700.48 1174.55 1719.69C1211.6 1738.89 1242.56 1761.22 1262.67 1781.78C1272.72 1792.06 1280.04 1801.88 1284.06 1810.63C1288.08 1819.39 1288.76 1826.98 1285.7 1832.9Z" stroke="url(#paint6_linear_184_2942)"/>
<circle cx="1162.25" cy="1760.25" r="193.433" transform="rotate(-32.6703 1162.25 1760.25)" fill="url(#paint7_radial_184_2942)"/>
<defs>
<radialGradient id="paint0_radial_184_2942" cx="0" cy="0" r="1" gradientUnits="userSpaceOnUse" gradientTransform="translate(1313.29 1674.95) rotate(88.1326) scale(451.542 451.783)">
<stop stop-color="#00B392"/>
<stop offset="1" stop-color="#11506B" stop-opacity="0"/>
</radialGradient>
<radialGradient id="paint1_radial_184_2942" cx="0" cy="0" r="1" gradientUnits="userSpaceOnUse" gradientTransform="translate(415.061 357.002) rotate(-162.862) scale(351.724 352.327)">
<stop stop-color="#003A83"/>
<stop offset="0.359375" stop-color="#00367A"/>
<stop offset="1" stop-color="#001835"/>
</radialGradient>
<radialGradient id="paint2_radial_184_2942" cx="0" cy="0" r="1" gradientUnits="userSpaceOnUse" gradientTransform="translate(1077.18 1263.84) rotate(88.1326) scale(722.415 722.801)">
<stop stop-color="#00B392"/>
<stop offset="1" stop-color="#11506B" stop-opacity="0"/>
</radialGradient>
<radialGradient id="paint3_radial_184_2942" cx="0" cy="0" r="1" gradientUnits="userSpaceOnUse" gradientTransform="translate(1192.46 1789.61) rotate(-142.391) scale(126.805 127.026)">
<stop stop-color="#FFE78B"/>
<stop offset="0.302083" stop-color="#CBC271"/>
<stop offset="1" stop-color="#1D3333"/>
</radialGradient>
<linearGradient id="paint4_linear_184_2942" x1="1208.23" y1="1679.48" x2="1121.43" y2="1898.74" gradientUnits="userSpaceOnUse">
<stop offset="0.338542" stop-color="white" stop-opacity="0"/>
<stop offset="1" stop-color="white" stop-opacity="0.18"/>
</linearGradient>
<linearGradient id="paint5_linear_184_2942" x1="1187.43" y1="1718.04" x2="1158.38" y2="1857.69" gradientUnits="userSpaceOnUse">
<stop offset="0.338542" stop-color="white" stop-opacity="0"/>
<stop offset="1" stop-color="white" stop-opacity="0.18"/>
</linearGradient>
<linearGradient id="paint6_linear_184_2942" x1="1215.1" y1="1743.23" x2="1200.74" y2="1834" gradientUnits="userSpaceOnUse">
<stop offset="0.338542" stop-color="white" stop-opacity="0"/>
<stop offset="1" stop-color="white" stop-opacity="0.18"/>
</linearGradient>
<radialGradient id="paint7_radial_184_2942" cx="0" cy="0" r="1" gradientUnits="userSpaceOnUse" gradientTransform="translate(1162.25 1760.25) rotate(90.6639) scale(170.047 170.137)">
<stop stop-color="#FFE78B"/>
<stop offset="0.447917" stop-color="#FFE78B" stop-opacity="0.479167"/>
<stop offset="1" stop-color="#766D4B" stop-opacity="0"/>
</radialGradient>
</defs>
</svg>
